<svg width="59" height="44" viewBox="0 0 59 44" fill="none" xmlns="http://www.w3.org/2000/svg">
<g clip-path="url(#clip0_4492_2245)" filter="url(#filter0_d_4492_2245)">
<path d="M17.3302 1.2804C17.3303 1.11943 17.2953 0.960409 17.2279 0.814578C17.1604 0.668747 17.0621 0.539666 16.9398 0.436463C16.6952 0.205117 16.3717 0.0779848 16.0367 0.0815367C15.8038 0.0777518 15.5746 0.140646 15.3756 0.262943C15.1562 0.404074 14.9896 0.614972 14.902 0.862374L10.7379 10.2114L6.56334 0.84397C6.47188 0.611079 6.31107 0.412633 6.10314 0.276053C5.89521 0.139474 5.65042 0.0715042 5.40259 0.0815367C5.04757 0.079776 4.7035 0.205576 4.43183 0.436463C4.29637 0.538044 4.18662 0.670551 4.11154 0.823162C4.03645 0.975774 3.99817 1.14416 3.99981 1.31458C3.99835 1.48194 4.03486 1.64742 4.10651 1.79833L9.31166 12.9772L7.45342 16.9839C7.3752 17.1552 7.3293 17.3398 7.31809 17.5281C7.31575 17.6859 7.35009 17.8421 7.41834 17.9841C7.48659 18.1261 7.58685 18.25 7.71107 18.3458C7.95587 18.5555 8.26716 18.6694 8.58814 18.6665C8.82369 18.6655 9.05368 18.5941 9.24919 18.4614C9.46262 18.3199 9.62866 18.1164 9.72546 17.8778L17.2235 1.79833C17.2944 1.63509 17.3308 1.45867 17.3302 1.2804Z" fill="#2963A3"/>
<path d="M43.5071 12.5118C43.4991 12.6807 43.5263 12.8493 43.5868 13.0069C43.6473 13.1645 43.7399 13.3075 43.8585 13.4267C43.982 13.5416 44.1267 13.6306 44.2844 13.6888C44.442 13.747 44.6095 13.7732 44.7772 13.7659C45.1428 13.7818 45.5002 13.6536 45.774 13.4083C45.9002 13.2915 46.0001 13.1486 46.067 12.9894C46.1339 12.8302 46.1662 12.6584 46.1618 12.4855V1.3908C46.1708 1.21084 46.1431 1.03093 46.0804 0.862232C46.0178 0.693535 45.9214 0.539656 45.7974 0.410152C45.5163 0.179307 45.1644 0.0543847 44.8022 0.0567829C44.4399 0.0591811 44.0897 0.188751 43.8116 0.423298C43.6856 0.549219 43.587 0.700291 43.522 0.866874C43.457 1.03346 43.4271 1.21189 43.4343 1.3908V7.79787C43.4343 8.94064 43.115 9.85819 42.4765 10.5505C42.1492 10.8971 41.7523 11.1689 41.3123 11.3476C40.8724 11.5262 40.3997 11.6077 39.926 11.5864C39.029 11.5864 38.3636 11.3322 37.9298 10.8239C37.4961 10.3157 37.28 9.52693 37.2818 8.45777V1.3908C37.2908 1.21084 37.2631 1.03093 37.2005 0.862232C37.1378 0.693535 37.0414 0.539656 36.9174 0.410152C36.7839 0.287248 36.6274 0.192539 36.4571 0.131589C36.2868 0.0706386 36.1062 0.0446762 35.9258 0.0552264C35.7423 0.044194 35.5584 0.0698661 35.3846 0.130771C35.2109 0.191677 35.0508 0.286617 34.9134 0.410152C34.7882 0.538814 34.6911 0.692558 34.6284 0.861466C34.5656 1.03037 34.5386 1.2107 34.5491 1.3908V8.48932C34.5491 12.0508 36.1505 13.8316 39.3534 13.8316C40.2042 13.8433 41.0441 13.6371 41.7946 13.2322C42.523 12.833 43.1186 12.2258 43.5071 11.4865V12.5118Z" fill="#2963A3"/>
<path d="M19.3551 33.8917L18.5977 33.8364C17.8794 33.7821 17.3442 33.5551 16.992 33.1555C16.6432 32.7559 16.4714 32.1275 16.4714 31.2731V24.6767H19.1339C19.4483 24.7007 19.7604 24.6071 20.0109 24.4138C20.1171 24.3137 20.2 24.191 20.2536 24.0546C20.3071 23.9182 20.33 23.7715 20.3207 23.6251C20.329 23.4788 20.3055 23.3324 20.2521 23.1962C20.1986 23.0599 20.1163 22.9371 20.0109 22.8364C19.7647 22.6328 19.4515 22.5305 19.1339 22.5498H16.461V19.7419C16.4712 19.5607 16.4427 19.3794 16.3776 19.2103C16.3125 19.0411 16.2123 18.888 16.0837 18.7613C15.8092 18.5154 15.4508 18.3871 15.0843 18.4037C14.9052 18.3942 14.7261 18.4207 14.5572 18.4817C14.3883 18.5426 14.2331 18.6367 14.1005 18.7587C13.9753 18.8873 13.8782 19.0411 13.8154 19.21C13.7527 19.3789 13.7257 19.5592 13.7361 19.7393V22.5498H12.1173C11.7996 22.5299 11.4863 22.6323 11.2403 22.8364C11.134 22.9366 11.051 23.0592 10.997 23.1955C10.943 23.3319 10.9195 23.4785 10.928 23.6251C10.928 24.3262 11.3244 24.6767 12.1173 24.6767H13.7361V31.0838C13.7361 32.6271 14.0953 33.797 14.8162 34.5857C15.5371 35.3745 16.6224 35.8267 18.0798 35.9371L18.8086 35.9897C19.2321 36.0514 19.6639 35.9701 20.037 35.7583C20.1722 35.6685 20.282 35.5447 20.3555 35.399C20.4289 35.2533 20.4636 35.0908 20.456 34.9275C20.4634 34.7955 20.4441 34.6633 20.3994 34.539C20.3547 34.4147 20.2854 34.3009 20.1957 34.2045C19.959 34.0065 19.6624 33.8961 19.3551 33.8917Z" fill="#2963A3"/>
<path d="M40.0118 16.4976C39.6534 16.4854 39.3031 16.6071 39.028 16.8394C38.8939 16.9653 38.7892 17.1198 38.7217 17.2917C38.6541 17.4637 38.6254 17.6486 38.6376 17.8332V34.683C38.6246 34.8657 38.6529 35.0489 38.7206 35.2189C38.7882 35.3888 38.8934 35.5409 39.028 35.6636C39.3067 35.8877 39.6558 36.0034 40.0118 35.9896C40.3648 36.0049 40.7111 35.8889 40.9851 35.6636C41.1159 35.5385 41.2176 35.3857 41.2828 35.2161C41.3481 35.0465 41.3753 34.8644 41.3625 34.683V17.8332C41.3745 17.6498 41.347 17.466 41.2819 17.2944C41.2167 17.1228 41.1155 16.9676 40.9851 16.8394C40.7147 16.606 40.3672 16.484 40.0118 16.4976Z" fill="#2963A3"/>
<path d="M54.5131 33.6997L49.2247 28.9831L54.0291 24.54C54.1683 24.4229 54.2814 24.2773 54.3608 24.1128C54.4402 23.9482 54.4841 23.7686 54.4897 23.5856C54.4811 23.2483 54.3445 22.9273 54.1081 22.689C53.8716 22.4506 53.5536 22.3133 53.2197 22.3053C52.8832 22.327 52.5664 22.473 52.3296 22.7154L46.1771 28.5204V17.8332C46.1897 17.6498 46.1624 17.4658 46.0972 17.2941C46.032 17.1225 45.9305 16.9673 45.7997 16.8394C45.5303 16.606 45.1836 16.4839 44.829 16.4976C44.4698 16.4853 44.1186 16.6069 43.8426 16.8394C43.7085 16.9653 43.6038 17.1198 43.5363 17.2918C43.4687 17.4637 43.44 17.6487 43.4522 17.8332V34.6593C43.44 34.8443 43.4687 35.0296 43.5362 35.202C43.6037 35.3743 43.7084 35.5293 43.8426 35.6557C44.119 35.8873 44.4701 36.008 44.829 35.9949C45.1833 36.0094 45.53 35.8882 45.7997 35.6557C45.9306 35.5273 46.0321 35.3717 46.0973 35.1996C46.1624 35.0275 46.1897 34.8431 46.1771 34.6593V29.6115L52.8969 35.6084C53.1412 35.8532 53.4716 35.9903 53.8156 35.9896C53.9738 35.9905 54.1303 35.9568 54.2745 35.891C54.4187 35.8253 54.5471 35.7289 54.6511 35.6084C54.8844 35.3667 55.0135 35.0416 55.0102 34.704C55.0095 34.5092 54.9643 34.3173 54.8781 34.1431C54.7918 33.9689 54.667 33.8171 54.5131 33.6997Z" fill="#2963A3"/>
<path d="M19.3343 13.8212H26.33C27.5218 13.8473 28.6994 13.5563 29.7446 12.9773C30.719 12.417 31.5076 11.5782 32.0114 10.5664C32.5603 9.4342 32.8325 8.18555 32.8052 6.92515C32.8357 5.65685 32.5634 4.39979 32.0114 3.26021C31.5092 2.24593 30.7203 1.40505 29.7446 0.844087C28.6994 0.265099 27.5218 -0.0259512 26.33 0.000152312H24.1204C22.9295 -0.0259836 21.7527 0.265083 20.7085 0.844087C19.7316 1.40353 18.9423 2.24482 18.4416 3.26021C17.8888 4.39956 17.6156 5.65664 17.6452 6.92515V10.7794C17.6452 13.001 18.2074 13.8212 19.3343 13.8212ZM21.3695 3.41796C22.0184 2.61171 22.9354 2.20858 24.1204 2.20858H26.33C27.5168 2.20858 28.4346 2.61346 29.0835 3.42322C29.7325 4.23297 30.056 5.40028 30.0543 6.92515C30.0543 8.4693 29.7351 9.64099 29.0966 10.4402C28.4581 11.2395 27.5359 11.64 26.33 11.6417H20.43C20.43 11.6417 20.3962 8.46842 20.3962 6.92515C20.3962 5.38188 20.7215 4.23034 21.3695 3.41796Z" fill="#2963A3"/>
<path d="M33.6094 23.023C32.5657 22.4423 31.3887 22.1502 30.1974 22.1764H27.9878C26.7959 22.1515 25.6184 22.4434 24.5733 23.023C23.5977 23.5829 22.8087 24.4229 22.3064 25.4365C21.7604 26.5777 21.4927 27.8343 21.5257 29.1014C21.4952 30.3607 21.7629 31.609 22.3064 32.7427C22.8095 33.755 23.5983 34.594 24.5733 35.1536C25.6186 35.7322 26.7961 36.0232 27.9878 35.9975H34.9836C36.1131 35.9975 36.6726 35.1772 36.6726 32.9478V29.1014C36.7029 27.8328 36.4297 26.5756 35.8762 25.4365C35.3756 24.4218 34.5862 23.5813 33.6094 23.023ZM33.8879 33.818H27.9878C26.7855 33.818 25.8633 33.4184 25.2213 32.6191C24.5793 31.8199 24.261 30.6473 24.2662 29.1014C24.2662 27.5731 24.5898 26.4057 25.2369 25.5995C25.8841 24.7932 26.8011 24.3884 27.9878 24.3849H30.1974C31.3842 24.3849 32.302 24.7897 32.951 25.5995C33.5999 26.4092 33.9261 27.5766 33.9295 29.1014C33.9295 30.6447 33.8879 33.818 33.8879 33.818Z" fill="#2963A3"/>
</g>
<defs>
<filter id="filter0_d_4492_2245" x="0" y="0" width="59" height="44" filterUnits="userSpaceOnUse" color-interpolation-filters="sRGB">
<feFlood flood-opacity="0" result="BackgroundImageFix"/>
<feColorMatrix in="SourceAlpha" type="matrix" values="0 0 0 0 0 0 0 0 0 0 0 0 0 0 0 0 0 0 127 0" result="hardAlpha"/>
<feOffset dy="4"/>
<feGaussianBlur stdDeviation="2"/>
<feComposite in2="hardAlpha" operator="out"/>
<feColorMatrix type="matrix" values="0 0 0 0 0 0 0 0 0 0 0 0 0 0 0 0 0 0 0.25 0"/>
<feBlend mode="normal" in2="BackgroundImageFix" result="effect1_dropShadow_4492_2245"/>
<feBlend mode="normal" in="SourceGraphic" in2="effect1_dropShadow_4492_2245" result="shape"/>
</filter>
<clipPath id="clip0_4492_2245">
<rect width="51" height="36" fill="white" transform="translate(4)"/>
</clipPath>
</defs>
</svg>
